<svg width="100" height="63" viewBox="0 0 100 63" fill="none" xmlns="http://www.w3.org/2000/svg">
<rect width="100" height="63" rx="4" fill="#981B1E"/>
<path d="M12.0804 17.2886L12.0804 17.2886C12.9973 14.0574 16.1855 12.4414 20.2143 12.25H20.2154H20.2169H20.2185H20.2202H20.222H20.224H20.2262H20.2284H20.2308H20.2334H20.236H20.2388H20.2418H20.2448H20.248H20.2514H20.2548H20.2584H20.2621H20.266H20.2699H20.2741H20.2783H20.2826H20.2871H20.2917H20.2965H20.3013H20.3063H20.3115H20.3167H20.3221H20.3275H20.3332H20.3389H20.3448H20.3507H20.3568H20.3631H20.3694H20.3759H20.3825H20.3892H20.396H20.4029H20.41H20.4172H20.4245H20.4319H20.4394H20.4471H20.4548H20.4627H20.4707H20.4788H20.4871H20.4954H20.5038H20.5124H20.5211H20.5299H20.5388H20.5478H20.5569H20.5662H20.5755H20.585H20.5945H20.6042H20.614H20.6239H20.6339H20.644H20.6542H20.6645H20.6749H20.6855H20.6961H20.7069H20.7177H20.7287H20.7397H20.7509H20.7621H20.7735H20.785H20.7965H20.8082H20.82H20.8318H20.8438H20.8559H20.868H20.8803H20.8927H20.9051H20.9177H20.9304H20.9431H20.956H20.9689H20.982H20.9951H21.0083H21.0216H21.0351H21.0486H21.0622H21.0759H21.0897H21.1036H21.1175H21.1316H21.1458H21.16H21.1743H21.1888H21.2033H21.2179H21.2326H21.2473H21.2622H21.2771H21.2922H21.3073H21.3225H21.3378H21.3532H21.3686H21.3842H21.3998H21.4155H21.4313H21.4472H21.4632H21.4792H21.4953H21.5115H21.5278H21.5442H21.5606H21.5771H21.5937H21.6104H21.6272H21.644H21.6609H21.6779H21.695H21.7121H21.7293H21.7466H21.764H21.7814H21.7989H21.8165H21.8341H21.8519H21.8697H21.8875H21.9055H21.9235H21.9416H21.9597H21.9779H21.9962H22.0146H22.033H22.0515H22.0701H22.0887H22.1074H22.1262H22.145H22.1639H22.1828H22.2019H22.2209H22.2401H22.2593H22.2786H22.2979H22.3173H22.3368H22.3563H22.3759H22.3955H22.4152H22.435H22.4548H22.4747H22.4946H22.5146H22.5347H22.5548H22.575H22.5952H22.6155H22.6358H22.6562H22.6767H22.6972H22.7177H22.7383H22.759H22.7797H22.8005H22.8213H22.8421H22.8631H22.884H22.905H22.9261H22.9472H22.9684H22.9896H23.0109H23.0322H23.0535H23.0749H23.0964H23.1179H23.1394H23.161H23.1826H23.2043H23.226H23.2478H23.2696H23.2915H23.3133H23.3353H23.3572H23.3793H23.4013H23.4234H23.4455H23.4677H23.4899H23.5122H23.5345H23.5568H23.5792H23.6016H23.624H23.6465H23.669H23.6915H23.7141H23.7367H23.7594H23.782H23.8048H23.8275H23.8503H23.8731H23.8959H23.9188H23.9417H23.9646H23.9876H24.0106H24.0336H24.0567H24.0797H24.1029H24.126H24.1491H24.1723H24.1955H24.2188H24.242H24.2653H24.2886H24.312H24.3353H24.3587H24.3821H24.4056H24.429H24.4525H24.476H24.4995H24.523H24.5466H24.5702H24.5937H24.6174H24.641H24.6646H24.6883H24.712H24.7357H24.7594H24.7831H24.8069H24.8306H24.8544H24.8782H24.902H24.9258H24.9496H24.9735H24.9973H25.0212H25.0451H25.069H25.0929H25.1168H25.1407H25.1646H25.1885H25.2125H25.2364H25.2604H25.2844H25.3083H25.3323H25.3563H25.3803H25.4043H25.4283H25.4523H25.4763H25.5003H25.5243H25.5483H25.5723H25.5964H25.6204H25.6444H25.6684H25.6925H25.7165H25.7405H25.7645H25.7885H25.8126H25.8366H25.8606H25.8846H25.9086H25.9326H25.9566H25.9806H26.0046H26.0285H26.0525H26.0765H26.1004H26.1244H26.1483H26.1723H26.1962H26.2201H26.244H26.2679H26.2918H26.3157H26.3396H26.3634H26.3873H26.4111H26.4349H26.4587H26.4825H26.5063H26.5301H26.5538H26.5776H26.6013H26.625H26.6487H26.6723H26.696H26.7196H26.7432H26.7668H26.7904H26.814H26.8375H26.861H26.8845H26.908H26.9315H26.9549H26.9783H27.0017H27.0251H27.0484H27.0717H27.095H27.1183H27.1415H27.1648H27.188H27.2111H27.2343H27.2574H27.2805H27.3035H27.3265H27.3495H27.3725H27.3955H27.4184H27.4413H27.4641H27.4869H27.5097H27.5325H27.5552H27.5779H27.6005H27.6232H27.6457H27.6683H27.6908H27.7133H27.7357H27.7582H27.7805H27.8029H27.8252H27.8474H27.8696H27.8918H27.914H27.9361H27.9582H27.9802H28.0022H28.0241H28.046H28.0679H28.0897H28.1115H28.1332H28.1549H28.1765H28.1981H28.2197H28.2412H28.2626H28.2841H28.3054H28.3268H28.348H28.3693H28.3904H28.4116H28.4326H28.4537H28.4747H28.4956H28.5165H28.5373H28.5581H28.5788H28.5995H28.6201H28.6407H28.6612H28.6817H28.7021H28.7224H28.7427H28.7629H28.7831H28.8033H28.8233H28.8433H28.8633H28.8832H28.903H28.9228H28.9425H28.9622H28.9818H29.0013H29.0208H29.0402H29.0596H29.0789H29.0981H29.1173H29.1364H29.1554H29.1744H29.1933H29.2122H29.2309H29.2497H29.2683H29.2869H29.3054H29.3238H29.3422H29.3605H29.3788H29.3969H29.415H29.4331H93.6945C91.8875 21.1514 90.1227 29.8166 88.3579 38.4818L88.3551 38.4954L88.6001 38.5453L88.3551 38.4954C88.283 38.8496 88.2109 39.2054 88.1388 39.5613C87.7526 41.4678 87.3649 43.3813 86.9624 45.1029L86.9624 45.103C86.4653 47.2326 85.3053 48.5656 83.598 49.3771C81.8737 50.1967 79.5782 50.49 76.8124 50.49H5.30763C6.14801 46.4622 6.96049 42.3579 7.77753 38.2305C8.79497 33.0908 9.81948 27.9154 10.9137 22.8076C11.0532 22.158 11.1768 21.5026 11.2999 20.8497C11.5287 19.6363 11.7559 18.4315 12.0804 17.2886ZM5 50.74H5.25541L5.05224 50.49C5.03484 50.5734 5.01743 50.6567 5 50.74Z" fill="#981B1E" stroke="white" stroke-width="0.5"/>
<path fill-rule="evenodd" clip-rule="evenodd" d="M28.7119 25.7688C29.098 25.5033 29.5942 24.2925 29.0264 23.7894C28.8464 23.6304 28.5459 23.5832 28.1266 23.6548C27.737 23.7212 27.5134 23.8522 27.3614 24.0602C27.1168 24.3938 26.8932 25.3967 27.2706 25.7706C27.6409 26.1322 28.4673 25.9383 28.7119 25.7688ZM23.2225 23.7894C22.9465 25.5836 22.6355 27.3412 22.3228 29.0988C20.3189 29.1197 18.2713 29.1983 16.339 29.0533C16.7042 27.3342 16.9662 25.5102 17.3296 23.7894H15.1685C14.3945 28.1763 13.6922 32.6314 12.8291 36.9275H15.0339C15.3799 34.7244 15.7031 32.4969 16.1591 30.4038C18.0389 30.3567 20.2927 30.2763 22.0992 30.4493C21.727 32.6261 21.2763 34.7261 20.9286 36.9292H23.1334C23.841 32.4776 24.5888 28.0645 25.4728 23.7911H23.2225V23.7894ZM54.4046 27.5683C52.689 26.8747 51.3402 28.047 50.7148 29.1424C50.8563 28.655 50.9157 28.0837 51.0293 27.5683H49.3189C48.9013 30.8092 48.2846 33.8543 47.6993 36.9275H49.6351C49.9059 35.1035 50.0229 32.6436 50.6257 30.8983C51.1061 29.5041 52.364 28.3161 54.181 28.9642C54.2055 28.4488 54.3522 28.0558 54.4046 27.5683ZM55.4843 34.7227C55.3061 34.2614 55.259 33.5014 55.3044 32.9231C55.404 31.6233 55.8774 30.0404 56.6095 29.3241C57.6193 28.3353 59.611 28.4995 61.1991 29.0533C61.248 28.517 61.3563 28.04 61.4244 27.5229C58.8195 27.0966 56.3457 27.3622 55.0353 28.7371C53.7512 30.0841 52.9109 33.1782 53.5049 35.1262C54.2002 37.4044 57.3223 37.5285 59.8486 36.6567C59.9604 36.1989 60.0198 35.6888 60.1176 35.2171C58.7392 35.9351 56.0993 36.3073 55.4843 34.7227ZM77.2182 27.6137C75.5078 26.7594 74.0839 28.1938 73.5283 29.0533C73.6873 28.6113 73.696 28.0208 73.8428 27.5683H72.1324C71.6711 30.7812 71.1156 33.9015 70.4674 36.9275H72.4468C72.4591 35.687 72.7037 34.7698 72.8976 33.5521C73.3117 30.9542 73.9179 28.1064 76.9474 28.9625C77.0487 28.524 77.0889 28.0261 77.2182 27.6137ZM26.7325 27.5683C26.68 27.5753 26.6835 27.6399 26.687 27.7028C26.2607 30.8913 25.6842 33.9295 25.0675 36.9275H27.0015C27.4662 33.7181 27.9991 30.5751 28.6665 27.5683H26.7325ZM43.7404 27.3884C42.3427 27.4967 41.1599 27.8985 40.3213 28.7825C39.2905 29.8675 38.4572 32.2662 38.7018 34.4519C39.0512 37.5687 42.9315 37.4569 46.0361 36.7021C46.0885 36.1553 46.2213 35.687 46.3069 35.1717C45.028 35.6504 42.8074 36.3177 41.4919 35.4861C40.4995 34.8589 40.4925 33.2691 40.8175 31.8871C42.9035 31.8207 45.0717 31.833 47.1612 31.8871C47.294 30.907 47.6731 29.8395 47.3411 28.8716C46.9026 27.5963 45.3355 27.2661 43.7404 27.3884ZM45.5853 30.8074H41.0411C41.1844 29.7627 42.1243 28.6148 43.6059 28.5572C45 28.5048 45.9976 29.0691 45.5853 30.8074ZM36.4061 27.5683C34.7691 26.9533 32.7721 27.6871 31.9073 28.386C31.9108 28.4174 31.8864 28.4209 31.8619 28.4226C31.8759 28.4104 31.8934 28.3982 31.9073 28.386C31.9073 28.3842 31.9073 28.3807 31.9056 28.379C31.9196 28.0785 32.0261 27.8688 32.0401 27.5683H30.3751C29.6815 32.1841 28.8587 36.6707 27.9904 41.1118H29.9244C30.2039 39.3821 30.3891 37.5582 30.7787 35.9369C31.2207 37.6403 34.1052 37.3153 35.3229 36.6567C37.8387 35.2992 39.7762 28.8332 36.4061 27.5683ZM34.8774 35.1717C33.8431 36.2688 31.2976 36.2514 31.0984 34.4064C31.0111 33.6045 31.3098 32.7624 31.4583 31.9325C31.6086 31.0922 31.7152 30.285 31.8637 29.5478C32.884 28.3021 35.8785 28.1518 36.1825 30.2221C36.4463 32.0199 35.7335 34.2649 34.8774 35.1717ZM84.4162 23.5186C84.2502 24.9721 84.0283 26.3716 83.7418 27.7028C78.9967 26.2003 76.086 29.6928 76.1367 34.0029C76.1472 34.8362 76.2905 35.6626 76.8111 36.2531C77.7091 37.2699 80.2826 37.5128 81.5806 36.6584C81.8322 36.4925 82.089 36.192 82.255 35.9841C82.3808 35.8268 82.5782 35.4162 82.6149 35.5333C82.5468 35.9893 82.4455 36.4138 82.435 36.9275H84.1891C84.528 32.0758 85.5727 27.9317 86.3485 23.5186H84.4162ZM80.0974 35.8915C78.794 35.9194 78.1476 35.114 78.1179 33.7775C78.0655 31.4364 79.0928 28.8367 81.1771 28.6026C82.1484 28.4943 82.8508 28.7196 83.5618 28.9625C82.9084 31.5919 83.1443 35.8268 80.0974 35.8915ZM63.4039 27.5683C63.3096 28.1029 63.1628 28.5869 63.044 29.0988C64.1866 28.8122 67.7402 27.9352 68.0826 29.4587C68.1962 29.9653 68.0005 30.5034 67.8572 30.8983C64.6426 30.5943 62.022 31.1271 61.3336 33.4176C60.8724 34.9515 61.386 36.461 62.3679 36.8821C64.2617 37.6927 66.5644 36.7633 67.3628 35.4879C67.2807 35.9299 67.2021 36.3771 67.2283 36.9275H68.8933C68.9107 35.3324 69.1431 34.043 69.3877 32.6087C69.5973 31.3875 69.9904 30.1767 69.9275 29.0988C69.786 26.6284 65.6943 27.5019 63.4039 27.5683ZM66.5539 35.128C65.5563 36.1046 62.7575 36.3806 63.044 34.0483C63.2816 32.1108 65.3921 31.6984 67.679 31.978C67.5078 33.0385 67.3139 34.3837 66.5539 35.128Z" fill="white"/>
</svg>
